dummy_motion.mot
nRows=16
nColumns=14

name dummy_motion.mot
datacolumns 14
datarows 16
range 0.0100000000 0.1600000000
endheader
time	first_body_list	first_body_rotation	first_body_tilt	first_body_tx	first_body_ty	first_body_tz	subtalar_angle_r	ankle_angle_r	knee_angle_r	hip_flexion_r	hip_adduction_r	hip_rotation_r	mtp_angle_r
        0.0100000000	        0.0000000000	        0.0000000000	        0.0000000000	        0.0000000000	        0.0000000000	        0.0000000000	        0.0000000000	       27.8722164472	      -74.3525505110	      -14.2567919135	       16.6825936879	        3.0531045583	        0.0000000000	
        0.0200000000	        0.0000000000	        0.0000000000	        0.0000000000	        0.0000000000	        0.0000000000	        0.0000000000	        0.0000000000	       -1.8964808211	      -34.7599248478	       13.7823655431	      -32.1132775554	      -39.3331887787	        0.0000000000	
        0.0300000000	        0.0000000000	        0.0000000000	        0.0000000000	        0.0000000000	        0.0000000000	        0.0000000000	        0.0000000000	      -19.0410120970	      -15.1046618051	      115.8223143351	      -33.4898271502	       21.5558639473	        0.0000000000	
        0.0400000000	        0.0000000000	        0.0000000000	        0.0000000000	        0.0000000000	        0.0000000000	        0.0000000000	        0.0000000000	        3.9919710163	      -75.0812433470	      -13.7153862814	       17.7856550861	       -2.7191290561	        0.0000000000	
        0.0500000000	        0.0000000000	        0.0000000000	        0.0000000000	        0.0000000000	        0.0000000000	        0.0000000000	        0.0000000000	      -44.6439382379	        0.1945952527	      116.4494479635	      -22.1759475063	        4.5091557926	        0.0000000000	
        0.0600000000	        0.0000000000	        0.0000000000	        0.0000000000	        0.0000000000	        0.0000000000	        0.0000000000	        0.0000000000	       10.4042882046	      -80.7546554047	      101.8979989828	       -3.0222274281	       36.4146320467	        0.0000000000	
        0.0700000000	        0.0000000000	        0.0000000000	        0.0000000000	        0.0000000000	        0.0000000000	        0.0000000000	        0.0000000000	      -41.6727164648	      -43.5010798235	      -66.0804607228	       -6.0073746805	       -8.9488616220	        0.0000000000	
        0.0800000000	        0.0000000000	        0.0000000000	        0.0000000000	        0.0000000000	        0.0000000000	        0.0000000000	        0.0000000000	        7.6618946554	      -67.4798979528	       27.9109211409	       11.9236905421	       -5.7407500412	        0.0000000000	
        0.0900000000	        0.0000000000	        0.0000000000	        0.0000000000	        0.0000000000	        0.0000000000	        0.0000000000	        0.0000000000	       18.6518540126	      -45.6135049536	      -52.0469250120	       24.5638916014	       10.0218596958	        0.0000000000	
        0.1000000000	        0.0000000000	        0.0000000000	        0.0000000000	        0.0000000000	        0.0000000000	        0.0000000000	        0.0000000000	       26.8010845142	       -9.1305936709	      -21.6981281592	      -24.1114753742	       -1.0160272065	        0.0000000000	
        0.1100000000	        0.0000000000	        0.0000000000	        0.0000000000	        0.0000000000	        0.0000000000	        0.0000000000	        0.0000000000	       25.2756862511	      -91.0395929253	      107.8166153893	        2.9924592085	      -37.6267479993	        0.0000000000	
        0.1200000000	        0.0000000000	        0.0000000000	        0.0000000000	        0.0000000000	        0.0000000000	        0.0000000000	        0.0000000000	       17.9997237274	        3.7465492470	       91.5061163094	      -39.4145397751	      -31.2179764551	        0.0000000000	
        0.1300000000	        0.0000000000	        0.0000000000	        0.0000000000	        0.0000000000	        0.0000000000	        0.0000000000	        0.0000000000	       10.3247590720	      -30.1820830064	      -37.6675225243	       30.1699321434	       26.6767451306	        0.0000000000	
        0.1400000000	        0.0000000000	        0.0000000000	        0.0000000000	        0.0000000000	        0.0000000000	        0.0000000000	        0.0000000000	      -40.2766655067	      -52.7027882883	      -42.1596198563	       16.5393482245	       -9.9341846855	        0.0000000000	
        0.1500000000	        0.0000000000	        0.0000000000	        0.0000000000	        0.0000000000	        0.0000000000	        0.0000000000	        0.0000000000	       11.6030233700	     -103.6401578704	       70.4161910765	        2.0059235306	      -19.0226998803	        0.0000000000	
        0.1600000000	        0.0000000000	        0.0000000000	        0.0000000000	        0.0000000000	        0.0000000000	        0.0000000000	        0.0000000000	       21.4286199517	      -52.1896217950	      -18.8554742742	      -18.1820593384	      -12.4568846120	        0.0000000000	
